 <svg version="1.0" xmlns="http://www.w3.org/2000/svg" width="700.000000pt" height="291.000000pt" viewBox="0 0 700.000000 291.000000" preserveAspectRatio="xMidYMid meet">
<metadata>
Created by potrace 1.12, written by Peter Selinger 2001-2015
</metadata>
<g transform="translate(0.000000,291.000000) scale(0.100000,-0.100000)" fill="#000000" stroke="none">
<path d="M6255 2687 c-175 -231 -251 -330 -311 -407 -240 -310 -575 -752 -572
-755 2 -3 73 14 158 35 85 22 158 40 163 40 4 0 -10 -33 -31 -72 -22 -40 -82
-152 -134 -248 -53 -96 -117 -215 -143 -265 -26 -49 -52 -96 -58 -102 -13 -17
-21 -18 158 23 86 20 159 33 162 31 2 -3 -100 -211 -227 -464 -127 -252 -225
-451 -218 -443 16 19 406 506 731 915 132 165 246 308 254 317 13 15 13 16 -4
12 -78 -17 -297 -55 -308 -52 -10 2 6 34 50 103 35 55 98 154 140 220 42 66
118 186 170 266 l93 146 -182 -69 c-99 -38 -191 -74 -203 -79 -29 -11 -29 -11
6 64 16 34 45 96 64 137 19 41 67 145 107 230 167 357 270 583 267 586 -1 1
-60 -75 -132 -169z"></path>
<path d="M5563 2635 c-433 -78 -737 -404 -817 -874 -21 -124 -21 -349 0 -471
32 -184 102 -353 203 -487 68 -90 149 -169 160 -157 7 8 63 157 128 339 13 39
28 80 33 91 6 16 1 39 -16 82 -71 176 -82 441 -28 657 28 110 89 221 162 294
76 75 146 114 248 138 l70 16 71 194 70 193 -106 -1 c-58 0 -138 -7 -178 -14z"></path>
<path d="M13 2478 c3 -13 120 -456 259 -985 l253 -963 217 0 216 0 100 408
c55 224 128 524 163 667 35 143 64 262 66 264 2 2 5 2 8 -1 3 -2 80 -305 171
-671 l166 -667 213 0 c212 0 213 0 217 22 3 13 51 194 108 403 216 805 410
1530 410 1537 0 5 -93 7 -207 6 l-207 -3 -122 -515 c-68 -283 -140 -588 -161
-677 -21 -90 -41 -163 -44 -163 -4 0 -83 306 -175 680 l-168 680 -200 -2 -200
-3 -169 -665 c-93 -366 -171 -667 -173 -669 -10 -11 -3 -38 -254 1044 l-67
290 -213 3 -212 2 5 -22z"></path>
<path d="M2790 1516 l0 -986 215 0 215 0 0 354 0 354 313 5 c256 3 323 7 372
21 225 65 371 210 425 422 24 94 26 247 5 348 -36 169 -144 309 -297 384 -150
74 -150 74 -730 79 l-518 5 0 -986z m943 634 c67 -16 136 -66 172 -124 28 -47
30 -55 30 -155 0 -122 -15 -161 -84 -224 -68 -61 -113 -70 -388 -75 l-243 -4
0 302 0 303 233 -6 c127 -3 253 -11 280 -17z"></path>
<path d="M6465 2138 c-146 -400 -134 -362 -122 -410 6 -24 11 -115 11 -203 0
-132 -4 -175 -22 -250 -47 -187 -152 -341 -282 -409 -30 -16 -56 -30 -58 -32
-7 -5 -152 -399 -152 -412 0 -11 149 7 230 28 318 81 567 312 678 630 59 168
67 225 66 455 0 202 -2 215 -32 328 -17 67 -52 161 -80 220 -47 97 -144 247
-160 247 -4 0 -38 -87 -77 -192z"></path>
</g>
</svg>