 <svg version="1.0" xmlns="http://www.w3.org/2000/svg" width="700.000000pt" height="882.000000pt" viewBox="0 0 700.000000 882.000000" preserveAspectRatio="xMidYMid meet">
<metadata>
Created by potrace 1.12, written by Peter Selinger 2001-2015
</metadata>
<g transform="translate(0.000000,882.000000) scale(0.100000,-0.100000)" fill="#000000" stroke="none">
<path d="M5376 8714 c-9 -24 -2 -26 12 -4 7 11 8 20 3 20 -5 0 -12 -7 -15 -16z"></path>
<path d="M5303 8614 c-60 -82 -185 -246 -222 -291 -50 -62 -94 -119 -153 -198
-71 -96 -161 -213 -205 -269 -18 -23 -41 -52 -50 -66 -38 -53 -117 -157 -147
-192 -31 -36 -84 -105 -121 -158 -17 -24 -123 -161 -230 -299 -29 -37 -56 -74
-128 -169 -17 -24 -46 -60 -63 -80 -17 -21 -35 -44 -40 -53 -5 -9 -24 -34 -42
-55 -18 -22 -80 -102 -138 -179 -58 -77 -124 -164 -147 -193 -67 -86 -135
-175 -154 -202 -23 -34 -164 -216 -200 -259 -15 -19 -41 -53 -58 -76 -16 -24
-50 -69 -75 -100 -70 -90 -90 -116 -160 -210 -36 -48 -79 -104 -96 -124 -17
-20 -45 -56 -62 -81 -18 -25 -47 -63 -65 -86 -61 -78 -122 -157 -162 -209 -22
-29 -60 -79 -85 -110 -25 -32 -59 -77 -76 -102 -18 -24 -42 -55 -54 -68 -13
-13 -28 -33 -34 -44 -6 -10 -33 -47 -59 -80 -27 -34 -45 -61 -40 -61 4 0 121
29 258 65 475 122 745 188 752 182 6 -7 -15 -49 -108 -222 -26 -49 -55 -105
-64 -124 -9 -18 -28 -52 -43 -75 -14 -22 -42 -72 -63 -111 -73 -139 -139 -264
-224 -420 -18 -33 -49 -91 -70 -130 -20 -38 -45 -83 -55 -100 -19 -31 -75
-135 -117 -220 -14 -27 -38 -69 -54 -92 -16 -23 -29 -47 -29 -53 0 -5 -11 -27
-23 -48 -13 -20 -57 -100 -97 -177 -80 -153 -120 -227 -163 -300 -15 -27 -26
-49 -25 -50 5 -5 792 173 931 210 70 18 67 18 67 1 0 -11 -290 -597 -337 -681
-6 -11 -46 -90 -89 -175 -107 -214 -543 -1079 -559 -1110 -8 -14 -26 -50 -40
-80 -53 -108 -86 -175 -97 -195 -6 -11 -38 -74 -71 -140 -32 -66 -64 -129 -70
-140 -41 -76 -136 -269 -133 -272 4 -4 38 35 106 122 25 32 57 71 71 89 14 17
85 105 157 196 207 260 215 270 252 315 19 23 71 88 115 145 79 101 105 133
198 247 73 89 165 204 195 243 14 19 40 51 57 71 51 60 99 121 118 148 9 14
36 49 60 78 57 69 228 282 252 314 26 35 229 288 280 350 22 27 58 72 80 99
22 28 56 70 75 93 20 23 42 52 50 63 8 12 42 55 75 95 33 40 69 85 80 100 11
15 47 59 80 99 33 40 87 107 120 150 33 42 107 136 165 207 181 225 405 507
450 566 24 31 23 31 -51 17 -30 -6 -202 -38 -384 -72 -181 -33 -364 -67 -405
-74 -118 -22 -160 -27 -160 -20 0 12 31 69 68 126 20 30 50 78 68 105 17 28
67 104 110 170 44 66 81 124 83 130 2 5 22 39 45 75 23 36 46 72 51 81 14 23
62 95 106 161 22 31 39 60 39 63 0 4 17 32 38 63 66 97 109 166 122 192 7 14
27 43 45 65 17 22 35 48 38 59 4 10 24 43 45 75 55 81 115 173 127 196 6 11
27 43 46 71 19 28 42 64 52 80 42 70 63 103 106 169 44 69 81 126 150 235 19
30 43 68 54 83 10 16 17 30 15 32 -4 4 -81 -25 -383 -140 -33 -12 -143 -54
-245 -93 -102 -39 -268 -103 -370 -143 -102 -39 -195 -74 -207 -76 -32 -7 -30
16 10 96 19 36 52 104 74 151 22 47 58 124 81 171 23 48 42 89 42 93 0 4 21
51 47 104 25 53 62 131 81 172 19 41 52 111 73 155 21 44 59 127 85 185 25 58
57 128 72 155 38 74 36 71 92 195 71 155 115 251 155 335 18 39 51 108 73 155
22 47 55 119 75 160 19 41 74 161 122 265 48 105 102 222 120 260 18 39 53
113 77 165 25 52 64 136 88 186 23 50 41 97 38 104 -2 8 -26 -17 -55 -56z"></path>
<path d="M3340 8045 c-8 -2 -87 -9 -175 -15 -149 -10 -190 -15 -335 -42 -236
-43 -389 -87 -605 -175 -509 -206 -940 -542 -1254 -978 -156 -215 -278 -434
-376 -675 -26 -63 -51 -124 -55 -135 -26 -62 -89 -264 -110 -355 -29 -119 -63
-285 -80 -390 -57 -348 -57 -958 0 -1310 17 -102 55 -292 69 -345 5 -16 14
-50 21 -75 16 -59 89 -289 99 -315 5 -11 16 -36 25 -57 9 -20 16 -39 16 -42 0
-16 131 -288 186 -386 109 -194 282 -425 444 -594 97 -102 236 -226 252 -226
5 0 13 12 18 28 6 15 15 36 20 47 5 11 19 52 31 90 12 39 27 84 34 100 7 17
16 39 20 50 8 21 57 157 95 260 12 33 36 98 55 145 18 47 42 112 53 145 11 33
39 112 62 175 23 63 55 153 72 200 16 47 38 102 48 123 l19 38 -33 72 c-19 40
-41 88 -49 107 -22 51 -76 217 -88 270 -6 25 -14 61 -19 80 -13 57 -41 206
-62 335 -9 54 -13 190 -13 420 0 373 4 413 64 720 128 655 460 1132 951 1366
36 17 72 34 80 38 8 4 42 16 75 25 33 10 71 22 85 26 44 15 168 40 197 40 15
0 44 5 64 10 35 10 38 14 67 98 50 148 89 254 126 342 20 46 36 90 36 97 0 6
12 40 26 75 37 89 39 94 67 178 42 125 103 292 126 344 14 32 18 53 12 59 -10
10 -331 20 -361 12z"></path>
<path d="M5793 7053 c-3 -10 -14 -36 -24 -58 -10 -23 -21 -54 -24 -70 -7 -28
-28 -85 -120 -325 -18 -47 -39 -103 -45 -125 -7 -22 -19 -55 -26 -72 -36 -85
-42 -101 -54 -148 -7 -27 -16 -54 -20 -60 -4 -5 -22 -53 -40 -105 -18 -52 -38
-108 -45 -125 -28 -62 -65 -159 -65 -169 0 -6 -18 -56 -40 -111 -21 -55 -56
-145 -76 -200 -37 -104 -37 -103 -14 -220 5 -27 14 -88 20 -135 6 -47 15 -112
20 -145 31 -201 14 -734 -29 -945 -5 -25 -15 -72 -21 -105 -64 -311 -165 -563
-323 -802 -82 -124 -110 -158 -217 -263 -113 -111 -246 -206 -397 -281 -115
-58 -122 -63 -136 -103 -8 -22 -36 -99 -62 -171 -27 -71 -62 -170 -79 -220
-18 -49 -44 -117 -58 -150 -14 -33 -31 -78 -37 -100 -7 -22 -16 -49 -21 -60
-5 -11 -20 -46 -34 -78 -14 -32 -26 -66 -26 -76 0 -19 -15 -61 -49 -136 -10
-22 -22 -55 -26 -73 -4 -18 -18 -60 -31 -92 -13 -33 -24 -63 -24 -66 0 -12
282 9 405 31 128 22 204 37 235 45 19 5 64 16 100 25 72 18 125 34 155 46 11
4 49 17 84 29 342 113 747 362 1028 630 308 296 504 586 712 1055 5 11 26 65
46 120 81 220 112 331 160 570 85 422 98 993 34 1415 -13 90 -47 277 -59 325
-40 171 -72 287 -119 420 -17 50 -35 99 -40 110 -14 32 -37 87 -51 125 -21 55
-173 348 -215 415 -79 126 -141 213 -214 304 -42 52 -84 105 -94 117 -22 28
-35 30 -44 7z"></path>
</g>
</svg>