 <svg version="1.0" xmlns="http://www.w3.org/2000/svg" width="700.000000pt" height="700.000000pt" viewBox="0 0 700.000000 700.000000" preserveAspectRatio="xMidYMid meet">
<metadata>
Created by potrace 1.12, written by Peter Selinger 2001-2015
</metadata>
<g transform="translate(0.000000,700.000000) scale(0.100000,-0.100000)" fill="#424242" stroke="none">
<path d="M0 3500 l0 -3500 3500 0 3500 0 0 3500 0 3500 -3500 0 -3500 0 0
-3500z m4614 3006 c71 -29 66 39 66 -966 0 -995 4 -932 -60 -965 -25 -13 -172
-15 -1122 -15 -848 0 -1098 3 -1117 13 -13 6 -34 25 -45 40 -21 28 -21 30 -21
926 0 851 1 898 18 925 38 58 -12 55 1165 56 904 0 1088 -2 1116 -14z m372
-2204 c-17 -28 -346 -745 -343 -749 2 -2 67 21 143 51 76 29 140 52 142 51 2
-2 -73 -123 -167 -269 -93 -146 -164 -266 -158 -266 7 0 61 9 121 21 59 11
109 19 111 17 1 -2 -168 -216 -376 -477 -209 -261 -379 -471 -379 -467 0 3 77
159 170 346 94 187 167 340 164 340 -3 0 -55 -11 -116 -25 -61 -14 -112 -25
-113 -23 -2 2 57 115 132 251 74 137 133 250 131 252 -2 2 -55 -9 -118 -25
-63 -16 -116 -28 -117 -26 -4 4 762 1005 770 1005 5 1 6 -3 3 -7z m-3891 -186
c83 -22 209 -86 277 -141 134 -108 236 -296 268 -499 16 -97 8 -319 -15 -406
-25 -95 -97 -240 -156 -310 -93 -112 -225 -196 -369 -236 -103 -29 -340 -26
-445 4 -206 60 -355 184 -451 377 -69 141 -87 221 -87 405 -1 168 10 235 60
358 42 106 91 182 167 258 108 108 241 177 388 204 76 13 292 5 363 -14z
m3481 7 c-4 -10 -28 -76 -54 -147 l-48 -129 -60 -17 c-80 -22 -118 -44 -171
-96 -59 -60 -108 -166 -128 -278 -24 -142 -17 -252 27 -388 l21 -67 -53 -148
c-29 -81 -59 -159 -65 -172 l-12 -23 -51 51 c-94 94 -164 219 -203 366 -29
106 -32 354 -6 459 41 163 109 289 211 392 142 141 308 210 519 213 70 1 78
-1 73 -16z m-2132 -544 l321 -517 3 519 2 519 165 0 165 0 -2 -782 -3 -783
-173 0 -174 0 -321 518 -322 517 -3 -520 -2 -520 -163 2 -162 3 -3 783 -2 782
176 -2 176 -3 322 -516z m1186 -264 l0 -785 -172 2 -173 3 -3 783 -2 782 175
0 175 0 0 -785z m2454 264 l321 -517 3 519 2 519 165 0 165 0 -2 -782 -3 -783
-173 0 -174 0 -321 518 -322 517 -3 -520 -2 -520 -163 2 -162 3 -3 783 -2 782
176 -2 176 -3 322 -516z m-959 276 c123 -169 172 -344 162 -584 -6 -160 -23
-232 -83 -358 -113 -235 -318 -380 -581 -409 -35 -3 -63 -3 -63 1 0 5 25 77
56 161 55 150 57 152 97 170 96 44 182 169 212 309 16 76 19 244 6 314 -8 39
-2 61 67 247 41 112 78 204 81 204 3 0 24 -25 46 -55z m1081 -2189 l34 -34 0
-447 0 -447 -34 -34 -34 -34 -2668 0 c-2629 0 -2669 0 -2701 20 -52 31 -54 55
-51 518 3 453 2 447 60 479 18 10 571 12 2692 13 l2668 0 34 -34z"></path>
<path d="M2631 5753 c27 -104 75 -287 107 -408 l58 -220 92 -3 91 -3 9 33 c5
18 35 144 68 280 32 136 61 248 64 248 3 0 37 -126 75 -280 l69 -280 91 0 90
0 103 388 c57 213 106 397 109 410 5 22 3 22 -80 22 l-85 0 -40 -167 c-22 -93
-53 -221 -68 -286 -15 -64 -31 -114 -35 -110 -3 5 -37 133 -74 286 l-67 277
-83 0 -84 0 -11 -37 c-5 -21 -38 -147 -72 -281 -33 -134 -64 -239 -68 -235 -6
7 -130 528 -130 547 0 3 -40 6 -89 6 l-89 0 49 -187z"></path>
<path d="M3755 5531 l0 -411 88 0 87 0 0 144 0 143 138 6 c160 6 213 21 270
76 90 88 97 264 15 361 -69 80 -86 85 -358 88 l-240 3 0 -410z m384 268 c69
-14 101 -53 101 -119 0 -37 -6 -55 -26 -79 -33 -39 -77 -51 -191 -51 l-93 0 0
123 c0 68 3 127 7 130 10 11 147 8 202 -4z"></path>
<path d="M743 3821 c-144 -49 -234 -173 -268 -365 -19 -112 -19 -171 0 -282
48 -271 239 -419 485 -374 218 40 340 224 340 515 0 269 -106 454 -290 509
-72 22 -201 20 -267 -3z"></path>
<path d="M1270 1200 l0 -230 45 0 44 0 3 93 3 92 98 3 97 3 0 34 0 34 -97 3
-98 3 0 55 0 55 113 3 112 3 0 39 0 40 -160 0 -160 0 0 -230z"></path>
<path d="M2486 1303 c19 -71 46 -174 60 -230 l26 -103 52 0 52 0 38 155 c21
86 41 153 44 150 3 -3 22 -72 42 -153 l36 -147 52 -3 c29 -2 52 -1 52 2 0 2
27 104 60 226 33 122 60 224 60 226 0 3 -21 4 -47 2 l-47 -3 -36 -152 c-19
-83 -38 -154 -41 -158 -4 -3 -24 65 -46 152 l-39 158 -46 3 -45 3 -38 -148
c-21 -81 -41 -154 -45 -161 -3 -7 -23 59 -44 148 l-38 160 -48 0 -48 0 34
-127z"></path>
<path d="M3950 1343 l0 -86 -24 22 c-34 32 -100 38 -146 13 -101 -54 -106
-251 -8 -312 45 -29 127 -23 163 10 l25 23 0 -21 c0 -19 6 -22 40 -22 l40 0 0
230 0 230 -45 0 -45 0 0 -87z m-47 -104 c39 -18 51 -52 48 -137 -1 -41 -40
-82 -76 -82 -16 0 -38 12 -56 29 -25 25 -29 37 -29 83 0 58 18 94 54 108 28
12 31 12 59 -1z"></path>
<path d="M4120 1201 l0 -231 50 0 50 0 0 79 0 78 85 5 c98 7 141 27 167 78 34
67 14 151 -45 194 -25 18 -46 21 -168 24 l-139 4 0 -231z m259 123 c27 -35 26
-59 -4 -89 -21 -22 -33 -25 -90 -25 l-65 0 0 70 0 70 69 0 c63 0 71 -2 90 -26z"></path>
<path d="M1731 1288 c-69 -36 -86 -66 -86 -153 0 -79 13 -108 68 -149 41 -30
125 -33 182 -6 59 29 85 77 85 158 0 97 -55 159 -151 168 -44 4 -62 1 -98 -18z
m109 -48 c20 0 50 -45 55 -85 17 -108 -78 -175 -145 -103 -26 28 -28 122 -4
156 18 26 52 43 72 36 8 -2 18 -4 22 -4z"></path>
<path d="M2195 1299 c-11 -6 -30 -23 -42 -38 l-23 -26 0 33 c0 31 -2 32 -40
32 l-40 0 0 -168 0 -167 43 3 42 4 1 100 c1 101 1 101 33 130 19 17 43 28 61
28 28 0 30 2 30 40 0 35 -3 40 -22 40 -13 0 -32 -5 -43 -11z"></path>
<path d="M3150 1288 c-62 -32 -93 -91 -88 -171 7 -94 61 -148 155 -155 46 -3
67 1 102 20 58 30 81 74 81 154 0 100 -54 161 -151 170 -44 4 -63 1 -99 -18z
m120 -53 c56 -29 65 -141 15 -191 -26 -26 -51 -30 -88 -13 -32 15 -47 49 -47
107 0 52 19 88 54 102 30 12 33 12 66 -5z"></path>
<path d="M3615 1299 c-11 -6 -30 -23 -42 -38 l-23 -26 0 33 c0 31 -2 32 -40
32 l-40 0 0 -168 0 -167 45 3 45 4 0 100 c0 97 1 100 29 129 20 19 40 29 60
29 29 0 31 2 31 40 0 35 -3 40 -22 40 -13 0 -32 -5 -43 -11z"></path>
<path d="M4697 1295 c-16 -8 -37 -25 -47 -37 l-19 -23 -1 33 c0 31 -2 32 -40
32 l-40 0 0 -165 0 -165 45 0 45 0 0 101 c0 98 1 101 29 130 20 19 40 29 60
29 29 0 31 2 31 40 0 45 -14 51 -63 25z"></path>
<path d="M4870 1288 c-62 -32 -93 -91 -88 -171 5 -60 23 -95 70 -130 33 -25
114 -33 162 -17 35 11 86 64 86 88 0 22 -61 13 -93 -14 -25 -21 -38 -25 -66
-20 -39 6 -71 37 -71 67 0 18 9 19 120 19 l120 0 0 33 c0 42 -37 115 -72 140
-42 31 -114 33 -168 5z m133 -70 c33 -39 23 -48 -58 -48 -77 0 -84 4 -64 41
22 42 89 46 122 7z"></path>
<path d="M5234 1299 c-40 -11 -64 -38 -70 -80 -9 -54 21 -83 107 -104 83 -21
115 -45 99 -75 -22 -42 -105 -36 -125 8 -8 18 -18 22 -52 22 -24 0 -43 -3 -43
-6 0 -3 7 -21 16 -39 23 -50 70 -68 161 -63 70 3 77 6 105 37 24 27 29 40 26
73 -4 52 -31 73 -123 97 -70 17 -93 36 -82 65 9 24 81 22 107 -4 12 -12 33
-20 55 -20 41 0 45 15 15 53 -33 42 -121 58 -196 36z"></path>
<path d="M5593 1304 c-12 -3 -33 -16 -47 -29 -21 -19 -26 -33 -26 -69 0 -54
18 -70 107 -93 101 -26 128 -56 78 -89 -35 -23 -92 -11 -107 22 -9 19 -19 24
-50 24 -43 0 -50 -18 -22 -58 25 -36 68 -52 139 -52 105 0 145 30 145 109 0
54 -25 75 -110 96 -85 21 -109 37 -94 62 17 28 88 30 107 3 12 -17 23 -21 56
-18 39 3 40 4 28 27 -22 43 -62 65 -124 67 -32 1 -68 0 -80 -2z"></path>
</g>
</svg>